<svg width="29" height="29" viewBox="0 0 29 29" fill="none" xmlns="http://www.w3.org/2000/svg">
<path d="M14.2858 2.85715C9.55194 2.85715 5.71438 6.69471 5.71438 11.4286V16.5511L4.70423 17.5613C4.29566 17.9698 4.17344 18.5843 4.39455 19.1181C4.61567 19.6519 5.13658 20 5.71438 20H22.8572C23.435 20 23.956 19.6519 24.1771 19.1181C24.3982 18.5843 24.276 17.9698 23.8674 17.5613L22.8572 16.5511V11.4286C22.8572 6.69471 19.0197 2.85715 14.2858 2.85715Z" fill="#080808"/>
<path d="M14.2858 25.7143C11.9188 25.7143 10.0001 23.7955 10.0001 21.4286H18.5715C18.5715 23.7955 16.6527 25.7143 14.2858 25.7143Z" fill="#080808"/>
</svg>
