<svg width="20" height="21" viewBox="0 0 20 21" fill="none" xmlns="http://www.w3.org/2000/svg">
<path fill-rule="evenodd" clip-rule="evenodd" d="M12.1213 9.73312H14.8891C15.3088 9.73312 15.6386 9.38615 15.6386 8.96774C15.6386 8.53912 15.3088 8.20236 14.8891 8.20236H12.1213C11.7016 8.20236 11.3719 8.53912 11.3719 8.96774C11.3719 9.38615 11.7016 9.73312 12.1213 9.73312ZM18.1766 4.42749C18.7861 4.42749 19.1858 4.6418 19.5855 5.11123C19.9852 5.58067 20.0551 6.2542 19.9652 6.86549L19.0159 13.56C18.8361 14.8469 17.7569 15.7949 16.4879 15.7949H5.58639C4.25742 15.7949 3.15828 14.755 3.04837 13.408L2.12908 2.2834L0.620259 2.01807C0.22057 1.94664 -0.0592117 1.54864 0.0107338 1.14043C0.0806793 0.723045 0.470376 0.446487 0.880056 0.508738L3.2632 0.875101C3.60293 0.937352 3.85274 1.22207 3.88272 1.56905L4.07257 3.85499C4.10254 4.18257 4.36234 4.42749 4.68209 4.42749H18.1766ZM5.42631 17.4079C4.58697 17.4079 3.9075 18.1018 3.9075 18.959C3.9075 19.8061 4.58697 20.5 5.42631 20.5C6.25567 20.5 6.93514 19.8061 6.93514 18.959C6.93514 18.1018 6.25567 17.4079 5.42631 17.4079ZM16.6676 17.4079C15.8282 17.4079 15.1487 18.1018 15.1487 18.959C15.1487 19.8061 15.8282 20.5 16.6676 20.5C17.4969 20.5 18.1764 19.8061 18.1764 18.959C18.1764 18.1018 17.4969 17.4079 16.6676 17.4079Z" fill="white"/>
</svg>
