<svg width="18" height="22" viewBox="0 0 18 22" fill="none" xmlns="http://www.w3.org/2000/svg">
<path fill-rule="evenodd" clip-rule="evenodd" d="M15.2549 14.1645L15.5172 12.2795C15.5979 11.6995 15.6717 11.1693 15.7373 10.6829C15.8721 9.68343 15.9395 9.18367 15.6406 8.84184C15.3418 8.5 14.8282 8.5 13.801 8.5H4.19905C3.17182 8.5 2.65821 8.5 2.35938 8.84184C2.06054 9.18367 2.12793 9.68343 2.26272 10.6829C2.32833 11.1695 2.40207 11.6993 2.48281 12.2795L2.74515 14.1645C3.03026 16.2132 3.17282 17.2376 3.47509 18.0603C4.04034 19.5988 5.01744 20.7447 6.18366 21.2368C6.8073 21.5 7.53822 21.5 9.00001 21.5C10.4618 21.5 11.1927 21.5 11.8164 21.2368C12.9826 20.7447 13.9597 19.5988 14.5249 18.0603C14.8272 17.2376 14.9698 16.2132 15.2549 14.1645ZM7.75 10.5C7.75 10.0858 7.41421 9.75 7 9.75C6.58579 9.75 6.25 10.0858 6.25 10.5V18.5C6.25 18.9142 6.58579 19.25 7 19.25C7.41421 19.25 7.75 18.9142 7.75 18.5V10.5ZM11.75 10.5C11.75 10.0858 11.4142 9.75 11 9.75C10.5858 9.75 10.25 10.0858 10.25 10.5V18.5C10.25 18.9142 10.5858 19.25 11 19.25C11.4142 19.25 11.75 18.9142 11.75 18.5V10.5Z" fill="#515151"/>
<path d="M9 0.75C6.37665 0.75 4.25 2.87665 4.25 5.5V5.75H1C0.585786 5.75 0.25 6.08579 0.25 6.5C0.25 6.91421 0.585786 7.25 1 7.25H17C17.4142 7.25 17.75 6.91421 17.75 6.5C17.75 6.08579 17.4142 5.75 17 5.75H13.75V5.5C13.75 2.87665 11.6234 0.75 9 0.75Z" fill="#515151"/>
</svg>
