<svg width="26" height="26" viewBox="0 0 26 26" fill="none" xmlns="http://www.w3.org/2000/svg">
<path d="M13 4.95833C12.5857 4.95833 12.25 5.29412 12.25 5.70833C12.25 6.12255 12.5857 6.45833 13 6.45833V4.95833ZM21.3333 6.45833C21.7475 6.45833 22.0833 6.12255 22.0833 5.70833C22.0833 5.29412 21.7475 4.95833 21.3333 4.95833V6.45833ZM13 19.5417C12.5857 19.5417 12.25 19.8775 12.25 20.2917C12.25 20.7059 12.5857 21.0417 13 21.0417V19.5417ZM21.3333 21.0417C21.7475 21.0417 22.0833 20.7059 22.0833 20.2917C22.0833 19.8775 21.7475 19.5417 21.3333 19.5417V21.0417ZM13 13.75C13.4142 13.75 13.75 13.4142 13.75 13C13.75 12.5858 13.4142 12.25 13 12.25V13.75ZM4.66663 12.25C4.25241 12.25 3.91663 12.5858 3.91663 13C3.91663 13.4142 4.25241 13.75 4.66663 13.75L4.66663 12.25ZM13 6.45833L21.3333 6.45833V4.95833L13 4.95833V6.45833ZM13 21.0417H21.3333V19.5417H13V21.0417ZM13 12.25L4.66663 12.25L4.66663 13.75L13 13.75V12.25ZM3.91663 5.70833C3.91663 7.27314 5.18515 8.54167 6.74996 8.54167V7.04167C6.01358 7.04167 5.41663 6.44471 5.41663 5.70833H3.91663ZM6.74996 8.54167C8.31477 8.54167 9.58329 7.27314 9.58329 5.70833H8.08329C8.08329 6.44471 7.48634 7.04167 6.74996 7.04167V8.54167ZM9.58329 5.70833C9.58329 4.14353 8.31477 2.875 6.74996 2.875V4.375C7.48634 4.375 8.08329 4.97195 8.08329 5.70833H9.58329ZM6.74996 2.875C5.18515 2.875 3.91663 4.14353 3.91663 5.70833H5.41663C5.41663 4.97195 6.01358 4.375 6.74996 4.375V2.875ZM3.91663 20.2917C3.91663 21.8565 5.18515 23.125 6.74996 23.125V21.625C6.01358 21.625 5.41663 21.028 5.41663 20.2917H3.91663ZM6.74996 23.125C8.31477 23.125 9.58329 21.8565 9.58329 20.2917H8.08329C8.08329 21.028 7.48634 21.625 6.74996 21.625V23.125ZM9.58329 20.2917C9.58329 18.7269 8.31477 17.4583 6.74996 17.4583V18.9583C7.48634 18.9583 8.08329 19.5553 8.08329 20.2917H9.58329ZM6.74996 17.4583C5.18515 17.4583 3.91663 18.7269 3.91663 20.2917H5.41663C5.41663 19.5553 6.01358 18.9583 6.74996 18.9583V17.4583ZM22.0833 13C22.0833 11.4352 20.8148 10.1667 19.25 10.1667L19.25 11.6667C19.9863 11.6667 20.5833 12.2636 20.5833 13H22.0833ZM19.25 10.1667C17.6852 10.1667 16.4166 11.4352 16.4166 13H17.9166C17.9166 12.2636 18.5136 11.6667 19.25 11.6667L19.25 10.1667ZM16.4166 13C16.4166 14.5648 17.6852 15.8333 19.25 15.8333L19.25 14.3333C18.5136 14.3333 17.9166 13.7364 17.9166 13H16.4166ZM19.25 15.8333C20.8148 15.8333 22.0833 14.5648 22.0833 13H20.5833C20.5833 13.7364 19.9863 14.3333 19.25 14.3333L19.25 15.8333Z" fill="#8E9295"/>
</svg>
