<svg width="24" height="24" viewBox="0 0 24 24" fill="none" xmlns="http://www.w3.org/2000/svg">
<path d="M11.999 2.16455C17.4392 2.16455 21.8486 6.574 21.8486 12.0142V16.0142C21.8486 16.4833 21.4682 16.8638 20.999 16.8638H19.8486V18.0142C19.8486 19.5883 18.5732 20.8638 16.999 20.8638C15.4249 20.8638 14.1494 19.5883 14.1494 18.0142V14.0142C14.1494 12.44 15.4249 11.1646 16.999 11.1646C18.5732 11.1646 19.8486 12.44 19.8486 14.0142H20.1494V12.0142C20.1494 7.51332 16.4999 3.86377 11.999 3.86377C7.49818 3.86377 3.84863 7.51332 3.84863 12.0142V14.0142H4.14941L4.16406 13.7231C4.30983 12.2857 5.52313 11.1646 6.99902 11.1646C8.57318 11.1646 9.84863 12.44 9.84863 14.0142V18.0142C9.84863 19.5883 8.57318 20.8638 6.99902 20.8638C5.42487 20.8638 4.14941 19.5883 4.14941 18.0142V16.8638H2.99902C2.52987 16.8638 2.14941 16.4833 2.14941 16.0142V12.0142C2.14941 6.574 6.55887 2.16455 11.999 2.16455ZM6.99902 12.8638C6.36418 12.8638 5.84863 13.3793 5.84863 14.0142V18.0142C5.84863 18.649 6.36418 19.1646 6.99902 19.1646C7.63387 19.1646 8.14941 18.649 8.14941 18.0142V14.0142C8.14941 13.3793 7.63387 12.8638 6.99902 12.8638ZM16.999 12.8638C16.3642 12.8638 15.8486 13.3793 15.8486 14.0142V18.0142C15.8486 18.649 16.3642 19.1646 16.999 19.1646C17.6339 19.1646 18.1494 18.649 18.1494 18.0142V14.0142C18.1494 13.3793 17.6339 12.8638 16.999 12.8638Z" fill="white" fill-opacity="0.7" stroke="#2F1528" stroke-width="0.3"/>
</svg>
