<svg width="24" height="25" viewBox="0 0 24 25" fill="none" xmlns="http://www.w3.org/2000/svg">
<path fill-rule="evenodd" clip-rule="evenodd" d="M6.29367 5.46556C3.62685 7.40311 2.29344 8.37189 1.76974 9.80291C1.72773 9.91771 1.68994 10.034 1.65645 10.1516C1.23901 11.6171 1.74832 13.1846 2.76696 16.3197C3.78559 19.4547 4.2949 21.0222 5.49405 21.9625C5.59025 22.0379 5.68918 22.1098 5.79064 22.178C7.05546 23.0279 8.70364 23.0279 12 23.0279C15.2964 23.0279 16.9446 23.0279 18.2094 22.178C18.3108 22.1098 18.4098 22.0379 18.506 21.9625C19.7051 21.0222 20.2144 19.4547 21.2331 16.3197C22.2517 13.1846 22.761 11.6171 22.3436 10.1516C22.3101 10.034 22.2723 9.91771 22.2303 9.80291C21.7066 8.37189 20.3732 7.40312 17.7064 5.46557C15.0395 3.52801 13.7061 2.55923 12.1833 2.50336C12.0611 2.49888 11.9389 2.49888 11.8167 2.50336C10.2939 2.55923 8.96048 3.52801 6.29367 5.46556ZM10 17.5697C9.58579 17.5697 9.25 17.9054 9.25 18.3197C9.25 18.7339 9.58579 19.0697 10 19.0697H14C14.4142 19.0697 14.75 18.7339 14.75 18.3197C14.75 17.9054 14.4142 17.5697 14 17.5697H10Z" stroke="white" stroke-opacity="0.7" stroke-width="1.5" stroke-linecap="round"/>
</svg>
