<svg width="19" height="21" viewBox="0 0 19 21" fill="none" xmlns="http://www.w3.org/2000/svg">
<path fill-rule="evenodd" clip-rule="evenodd" d="M12.791 11.25H0.75C0.336 11.25 0 10.914 0 10.5C0 10.086 0.336 9.75 0.75 9.75H12.791C13.205 9.75 13.541 10.086 13.541 10.5C13.541 10.914 13.205 11.25 12.791 11.25Z" fill="white" fill-opacity="0.7"/>
<path fill-rule="evenodd" clip-rule="evenodd" d="M9.8633 14.165C9.6713 14.165 9.4783 14.092 9.3323 13.944C9.0393 13.65 9.0413 13.176 9.3343 12.884L11.7283 10.5L9.3343 8.11498C9.0413 7.82298 9.0393 7.34898 9.3323 7.05498C9.6253 6.76098 10.0993 6.76098 10.3923 7.05298L13.3213 9.96898C13.4633 10.109 13.5423 10.301 13.5423 10.5C13.5423 10.699 13.4633 10.891 13.3213 11.031L10.3923 13.946C10.2463 14.092 10.0543 14.165 9.8633 14.165Z" fill="white" fill-opacity="0.7"/>
<path fill-rule="evenodd" clip-rule="evenodd" d="M14.042 20.5H9.157C6.718 20.5 4.733 18.515 4.733 16.075V15.133C4.733 14.719 5.069 14.383 5.483 14.383C5.897 14.383 6.233 14.719 6.233 15.133V16.075C6.233 17.687 7.545 19 9.157 19H14.042C15.661 19 16.978 17.684 16.978 16.064V4.925C16.978 3.313 15.665 2 14.053 2H9.168C7.55 2 6.233 3.316 6.233 4.934V5.867C6.233 6.281 5.897 6.617 5.483 6.617C5.069 6.617 4.733 6.281 4.733 5.867V4.934C4.733 2.489 6.723 0.5 9.168 0.5H14.053C16.492 0.5 18.478 2.485 18.478 4.925V16.064C18.478 18.51 16.487 20.5 14.042 20.5Z" fill="white" fill-opacity="0.7"/>
</svg>
