<svg width="139" height="30" viewBox="0 0 139 30" fill="none" xmlns="http://www.w3.org/2000/svg">
<path d="M15 22.5H15.0125M10 26.25H20C21.3807 26.25 22.5 25.1307 22.5 23.75V6.25C22.5 4.86929 21.3807 3.75 20 3.75H10C8.61929 3.75 7.5 4.86929 7.5 6.25V23.75C7.5 25.1307 8.61929 26.25 10 26.25Z" stroke="#080808" stroke-width="3" stroke-linecap="round" stroke-linejoin="round"/>
<path d="M35.3977 24H32.3737V6.456H35.4217L43.6537 18.888V6.456H46.6777V24H43.6537L35.3977 11.568V24ZM49.4332 18.048C49.4332 14.352 52.0972 11.808 55.7692 11.808C59.4412 11.808 62.1052 14.352 62.1052 18.048C62.1052 21.744 59.4412 24.288 55.7692 24.288C52.0972 24.288 49.4332 21.744 49.4332 18.048ZM52.3612 18.048C52.3612 20.208 53.7532 21.672 55.7692 21.672C57.7852 21.672 59.1772 20.208 59.1772 18.048C59.1772 15.888 57.7852 14.424 55.7692 14.424C53.7532 14.424 52.3612 15.888 52.3612 18.048ZM67.2001 24L62.4961 12.144H65.6161L67.6801 17.592C68.1841 19.008 68.5921 20.232 68.7361 20.88C68.9041 20.136 69.3361 18.888 69.8401 17.592L72.0001 12.144H75.0241L70.0801 24H67.2001ZM79.6494 24.312C77.1294 24.312 75.5934 22.848 75.5934 20.616C75.5934 18.432 77.1774 17.064 79.9854 16.848L83.5374 16.584V16.32C83.5374 14.712 82.5774 14.064 81.0894 14.064C79.3614 14.064 78.4014 14.784 78.4014 16.032H75.9054C75.9054 13.464 78.0174 11.784 81.2334 11.784C84.4254 11.784 86.3934 13.512 86.3934 16.8V24H83.8254L83.6094 22.248C83.1054 23.472 81.4974 24.312 79.6494 24.312ZM80.6094 22.104C82.4094 22.104 83.5614 21.024 83.5614 19.2V18.576L81.0894 18.768C79.2654 18.936 78.5694 19.536 78.5694 20.496C78.5694 21.576 79.2894 22.104 80.6094 22.104ZM86.1502 9.288V6.456H99.4942V9.288H94.3582V24H91.2862V9.288H86.1502ZM104.699 24.312C101.171 24.312 98.6988 21.744 98.6988 18.072C98.6988 14.352 101.123 11.784 104.603 11.784C108.155 11.784 110.411 14.16 110.411 17.856V18.744L101.483 18.768C101.699 20.856 102.803 21.912 104.747 21.912C106.355 21.912 107.411 21.288 107.747 20.16H110.459C109.955 22.752 107.795 24.312 104.699 24.312ZM104.627 14.184C102.899 14.184 101.843 15.12 101.555 16.896H107.507C107.507 15.264 106.379 14.184 104.627 14.184ZM112.058 18.048C112.058 14.376 114.482 11.784 117.986 11.784C121.226 11.784 123.434 13.584 123.746 16.44H120.818C120.482 15.096 119.498 14.4 118.106 14.4C116.234 14.4 114.986 15.816 114.986 18.048C114.986 20.28 116.138 21.672 118.01 21.672C119.474 21.672 120.506 20.952 120.818 19.656H123.77C123.41 22.416 121.106 24.312 118.01 24.312C114.41 24.312 112.058 21.816 112.058 18.048ZM128.878 24H125.95V6.144H128.902V13.68C129.646 12.528 131.038 11.784 132.742 11.784C135.67 11.784 137.206 13.632 137.206 16.704V24H134.278V17.4C134.278 15.408 133.294 14.448 131.806 14.448C129.958 14.448 128.878 15.744 128.878 17.52V24Z" fill="black"/>
</svg>
