<svg width="20" height="21" viewBox="0 0 20 21" fill="none" xmlns="http://www.w3.org/2000/svg">
<g clip-path="url(#clip0_1_84)">
<path fill-rule="evenodd" clip-rule="evenodd" d="M9.16666 0.708328C4.67934 0.708328 1.04166 4.34601 1.04166 8.83333C1.04166 13.3206 4.67934 16.9583 9.16666 16.9583C13.654 16.9583 17.2917 13.3206 17.2917 8.83333C17.2917 4.34601 13.654 0.708328 9.16666 0.708328ZM2.29166 8.83333C2.29166 5.03637 5.3697 1.95833 9.16666 1.95833C12.9636 1.95833 16.0417 5.03637 16.0417 8.83333C16.0417 12.6303 12.9636 15.7083 9.16666 15.7083C5.3697 15.7083 2.29166 12.6303 2.29166 8.83333Z" fill="#8E9295"/>
<path d="M16.2753 15.0581C16.0312 14.8141 15.6355 14.814 15.3914 15.0581C15.1474 15.3022 15.1474 15.6979 15.3914 15.942L18.7247 19.2753C18.9688 19.5194 19.3645 19.5194 19.6086 19.2753C19.8526 19.0312 19.8526 18.6355 19.6086 18.3914L16.2753 15.0581Z" fill="#8E9295"/>
</g>
<defs>
<clipPath id="clip0_1_84">
<rect width="20" height="20" fill="white" transform="translate(0 0.5)"/>
</clipPath>
</defs>
</svg>
